<?xml version="1.0" standalone="no"?>
<!DOCTYPE svg PUBLIC "-//W3C//DTD SVG 20010904//EN"
 "http://www.w3.org/TR/2001/REC-SVG-20010904/DTD/svg10.dtd">
<svg version="1.0" xmlns="http://www.w3.org/2000/svg"
 width="84.000000pt" height="84.000000pt" viewBox="0 0 84.000000 84.000000"
 preserveAspectRatio="xMidYMid meet">
<metadata>
Created by potrace 1.11, written by Peter Selinger 2001-2013
</metadata>
<g transform="translate(0.000000,84.000000) scale(0.100000,-0.100000)"
fill="#000000" stroke="none">
<path d="M341 721 c-101 -26 -173 -129 -180 -258 -6 -129 39 -228 126 -280 43
-25 57 -28 129 -26 80 1 82 0 133 -38 58 -44 71 -47 94 -21 19 21 14 30 -33
62 -19 13 -38 28 -41 33 -4 5 8 29 26 53 107 140 73 366 -67 448 -48 28 -133
40 -187 27z m172 -103 c48 -48 67 -99 67 -178 0 -79 -19 -130 -67 -177 -41
-42 -44 -43 -108 -43 -62 0 -67 2 -103 38 -48 48 -65 107 -60 204 6 133 62
198 170 198 56 0 61 -2 101 -42z"/>
</g>
</svg>
