<svg xmlns="http://www.w3.org/2000/svg" width="22" height="22" viewBox="0 0 22 22"><g><g><path fill="#fff" d="M13.708 21.624a22.428 22.428 0 0 1-8.142-5.19A22.421 22.421 0 0 1 .376 8.29 6.087 6.087 0 0 1 .064 5.3a6.228 6.228 0 0 1 1.06-2.656A6.258 6.258 0 0 1 3.272.732 6.128 6.128 0 0 1 6.205 0c.324 0 .604.226.672.543l1.08 5.036a.688.688 0 0 1-.187.63L5.926 8.053a18.092 18.092 0 0 0 8.02 8.02l1.844-1.844a.688.688 0 0 1 .63-.186l5.036 1.079a.688.688 0 0 1 .544.672c0 1.042-.247 2.03-.733 2.933a6.251 6.251 0 0 1-4.568 3.207 6.133 6.133 0 0 1-2.99-.31zM5.656 1.404a4.761 4.761 0 0 0-3.405 2.03 4.737 4.737 0 0 0-.583 4.388 20.851 20.851 0 0 0 12.51 12.51 4.736 4.736 0 0 0 4.388-.583 4.762 4.762 0 0 0 2.029-3.406l-4.097-.878-1.925 1.926a.687.687 0 0 1-.779.136 19.466 19.466 0 0 1-9.322-9.322.687.687 0 0 1 .136-.778l1.926-1.926zM20.625 11c0-5.307-4.318-9.624-9.625-9.624A.688.688 0 0 1 11 0c2.938 0 5.7 1.144 7.778 3.221A10.927 10.927 0 0 1 22 11a.688.688 0 1 1-1.375 0zm-2.063.688a.688.688 0 0 1-.687-.688A6.882 6.882 0 0 0 11 4.125a.688.688 0 0 1 0-1.376c4.55 0 8.25 3.701 8.25 8.25 0 .38-.308.688-.688.688zm-2.75 0a.688.688 0 0 1-.687-.688A4.13 4.13 0 0 0 11 6.875a.688.688 0 0 1 0-1.376c3.033 0 5.5 2.467 5.5 5.5 0 .38-.308.688-.687.688z"/></g></g></svg>