<svg xmlns="http://www.w3.org/2000/svg" width="30" height="30" viewBox="0 0 30 30"><g><g><path fill="#fff" d="M29.97 8.035l-1.272 9.455c-.112.831-.544 1.61-1.215 2.193a3.612 3.612 0 0 1-2.355.902h-4.912-5.702-.001-6.908l.185 1.38c.115.851.944 1.57 1.811 1.57h17.903c.49 0 .888.393.888.879 0 .485-.398.879-.888.879H25.18c.23.442.36.943.36 1.474 0 1.783-1.464 3.232-3.263 3.232-1.8 0-3.264-1.45-3.264-3.232 0-.531.13-1.032.36-1.474h-4.65c.23.442.361.943.361 1.474 0 1.783-1.464 3.232-3.264 3.232-1.8 0-3.264-1.45-3.264-3.232 0-.556.143-1.08.394-1.538a3.68 3.68 0 0 1-1.703-.84c-.672-.582-1.103-1.36-1.215-2.192L3.49 3.327c-.131-.974-.734-1.57-1.02-1.57H.888A.883.883 0 0 1 0 .88c0-.486.397-.88.887-.88h1.585C3.796 0 5.016 1.36 5.25 3.096l.217 1.611h21.562c.892 0 1.692.35 2.254.986.561.635.806 1.467.688 2.343zM11.82 25.293c-.822 0-1.49.661-1.49 1.474s.668 1.475 1.49 1.475c.82 0 1.488-.662 1.488-1.475 0-.813-.668-1.474-1.489-1.474zm10.456 0c-.821 0-1.49.661-1.49 1.474s.669 1.475 1.49 1.475 1.489-.662 1.489-1.475c0-.813-.668-1.474-1.49-1.474zm4.753-18.828h-5.033l-.357 5.302h6.039l.533-3.965c.05-.366-.044-.704-.264-.952-.22-.249-.546-.385-.918-.385zm-7.644 12.363l.357-5.303h-4.755l.357 5.303zm.475-7.061l.357-5.302h-5.705l.356 5.302zM5.703 6.465l.714 5.302h6.672l-.356-5.302zm1.665 12.363h6.197l-.357-5.303H6.654zm19.57-1.57l.503-3.733h-5.92l-.357 5.303h3.964c.867 0 1.696-.72 1.81-1.57z"/></g></g></svg>