<svg xmlns="http://www.w3.org/2000/svg" width="1921" height="344" viewBox="0 0 1921 344"><g><g><path fill="#f8f8f8" d="M177.255 253.29l51.475 36.211-23.551 20.889-57.75-41.084a130.91 130.91 0 0 1-17.972 4.353 112.094 112.094 0 0 1-18.842 1.57c-32.799 0-59.436-12.184-79.91-36.558C10.237 214.305 0 183.661 0 146.757v-3.659c0-36.783 10.229-67.426 30.704-91.914 20.475-24.487 47.112-36.73 79.911-36.73 33.729 0 61.209 12.243 82.44 36.73 21.223 24.488 31.843 55.122 31.843 91.914v3.66c0 22.518-4.19 43.06-12.567 61.625-8.378 18.565-20.067 33.54-35.076 44.907zm-7.673-33.938c13.957-18.565 20.935-42.766 20.935-72.595v-4.006c0-29.481-7.065-53.535-21.196-72.16-14.131-18.626-33.703-27.94-58.715-27.94-23.968 0-42.662 9.34-56.098 28.026s-20.154 42.714-20.154 72.074v4.006c0 29.716 6.718 53.882 20.154 72.508 13.436 18.626 32.138 27.939 56.098 27.939 25.36 0 45.018-9.288 58.976-27.852zm222.194-68.242v26.811H306.46V151.11zm249.172-43.607c12.975 18.513 19.458 42.974 19.458 73.375v3.66c0 27.157-6.518 49.069-19.545 65.718-13.036 16.657-31 24.981-53.917 24.981-11.629 0-21.84-1.95-30.618-5.836-8.786-3.893-16.26-9.668-22.422-17.324v64.938l28.436 4.873v22.11h-91.252v-22.11l28.436-4.873V110.2l-28.436-4.873V83.215h57.923l3.138 22.979c6.283-8.593 13.93-15.149 22.943-19.675 9.012-4.527 19.459-6.79 31.321-6.79 23.387 0 41.56 9.261 54.535 27.774zm-15.096 77.026v-3.66c0-21.47-4.19-39.054-12.567-52.746-8.37-13.692-20.823-20.542-37.335-20.542-9.769 0-18.146 2.203-25.125 6.616-6.979 4.414-12.619 10.45-16.92 18.106v91.74c4.301 7.778 9.915 13.787 16.833 18.018 6.918 4.24 15.443 6.356 25.56 6.356 16.277 0 28.61-5.922 36.987-17.758 8.378-11.836 12.567-27.21 12.567-46.13zm269.846-30.982v91.211l28.436 4.873v21.939h-91.252V249.63l28.435-4.873v-91.567c0-15.547-3.346-27.037-10.029-34.468-6.691-7.422-16.66-11.142-29.922-11.142-9.42 0-17.998 2.237-25.733 6.703-7.735 4.466-14.105 10.535-19.102 18.192v112.291l28.436 4.873v21.938h-91.252V249.64l28.436-4.873V26.983l-28.436-4.873V0h62.816v108.284c6.51-9.052 14.479-16.067 23.9-21.062 9.42-4.985 19.892-7.483 31.408-7.483 20.24 0 35.944 6.035 47.112 18.105 11.167 12.07 16.747 30.635 16.747 55.704zm234.44 94.168l13.957 1.916v21.939h-45.017c-1.043-5.108-1.86-9.686-2.443-13.753-.59-4.058-.99-8.116-1.225-12.183-6.631 8.472-14.922 15.521-24.864 21.149-9.942 5.627-20.562 8.446-31.843 8.446-19.658 0-34.606-4.787-44.844-14.36-10.237-9.573-15.356-23.065-15.356-40.477 0-17.87 7.248-31.65 21.726-41.344 14.48-9.685 34.337-14.533 59.584-14.533h35.423v-21.938c0-11.029-3.493-19.76-10.472-26.203-6.979-6.443-16.695-9.66-29.14-9.66-8.612 0-16.2 1.101-22.77 3.304s-11.897 5.22-15.964 9.052l-3.668 19.848h-26.524v-36.557c8.613-6.841 19.024-12.33 31.234-16.449 12.21-4.119 25.473-6.182 39.778-6.182 21.405 0 38.734 5.453 51.996 16.362 13.262 10.917 19.893 26.525 19.893 46.833v90.7c0 2.436.026 4.812.087 7.136s.209 4.64.452 6.954zm-34.91-29.066v-30.973h-36.64c-14.08 0-25.212 3.251-33.416 9.747-8.196 6.494-12.298 14.385-12.298 23.672 0 8.237 2.555 14.533 7.674 18.885 5.119 4.354 12.854 6.53 23.204 6.53 11.403 0 21.814-2.732 31.235-8.186 9.42-5.454 16.164-12.018 20.24-19.675zM1331.31 80.328c2.85.407 5.032.85 6.544 1.31l-4.536 31.857-19.546-1.04c-9.073 0-16.695 2.124-22.856 6.355-6.162 4.24-10.933 10.189-14.305 17.845v108.112l28.436 4.873v21.938h-91.253V249.64l28.436-4.873V110.2l-28.436-4.873V83.215h59.15l3.31 27.331c5.354-9.633 11.959-17.177 19.807-22.631 7.856-5.454 16.842-8.185 26.958-8.185 2.668 0 5.432.208 8.291.598zm348.454 78.612v85.818l28.436 4.873v21.939h-91.426V249.63l28.436-4.873v-86.173c0-18.566-3.199-31.71-9.595-39.428-6.396-7.717-15.87-11.576-28.436-11.576-11.984 0-21.614 4.214-28.88 12.626-7.273 8.419-11.488 19.006-12.653 31.77v92.781l28.436 4.873v21.938h-91.252v-21.938l28.436-4.873v-86.173c0-17.637-3.285-30.549-9.856-38.734-6.57-8.177-16.077-12.27-28.523-12.27-10.463 0-19.076 2.15-25.82 6.443-6.752 4.292-11.923 10.327-15.53 18.105v112.63l28.436 4.872v21.938h-91.252v-21.938l28.436-4.873V110.191l-28.436-4.873V83.207h59.322l2.269 24.547c6.048-8.93 13.835-15.841 23.378-20.715 9.542-4.873 20.597-7.31 33.155-7.31s23.351 2.905 32.364 8.706c9.012 5.801 15.79 14.507 20.327 26.109 5.927-10.674 13.784-19.146 23.552-25.415 9.768-6.27 21.17-9.4 34.198-9.4 19.31 0 34.546 6.59 45.713 19.762 11.168 13.171 16.747 32.985 16.747 59.45zM1921 249.631v21.939h-45.018c-1.043-5.108-1.86-9.686-2.442-13.753a140.69 140.69 0 0 1-1.225-12.183c-6.631 8.472-14.922 15.521-24.864 21.149-9.943 5.627-20.563 8.446-31.843 8.446-19.659 0-34.607-4.787-44.844-14.36-10.238-9.573-15.357-23.065-15.357-40.477 0-17.87 7.249-31.65 21.727-41.344 14.479-9.685 34.346-14.533 59.584-14.533h35.423v-21.937c0-11.03-3.494-19.761-10.472-26.204-6.98-6.443-16.695-9.66-29.14-9.66-8.613 0-16.2 1.101-22.77 3.304s-11.898 5.22-15.965 9.052l-3.667 19.848h-26.524v-36.557c8.612-6.841 19.024-12.33 31.234-16.449 12.21-4.119 25.472-6.182 39.777-6.182 21.406 0 38.735 5.453 51.997 16.362 13.262 10.917 19.893 26.525 19.893 46.833v90.7c0 2.436.026 4.812.087 7.136.052 2.324.2 4.64.434 6.963zm-48.868-30.982v-30.973h-36.64c-14.079 0-25.212 3.251-33.416 9.747-8.195 6.494-12.297 14.385-12.297 23.672 0 8.237 2.555 14.533 7.674 18.885 5.119 4.354 12.854 6.53 23.204 6.53 11.402 0 21.814-2.732 31.235-8.186 9.42-5.454 16.164-12.018 20.24-19.675z"/></g></g></svg>